<mxfile host="app.diagrams.net" modified="2024-05-21T12:02:05.093Z" agent="Mozilla/5.0 (X11; Linux x86_64) AppleWebKit/537.36 (KHTML, like Gecko) Chrome/119.0.0.0 Safari/537.36 OPR/105.0.0.0" version="24.4.4" etag="QBH0hD-VB-AZDIJRUvEW" type="github">
  <diagram name="Page-1" id="7MJ8zTwblDnVMS-m4Cuy">
    <mxGraphModel>
      <root>
        <mxCell id="0" />
        <mxCell id="1" parent="0" />
      </root>
    </mxGraphModel>
  </diagram>
</mxfile>
